# xmcd
#
# Track frame offsets: 
#        150
#        17337
#        37900
#        54637
#        81700
#        98100
#        115100
#        132600
#        152325
#        167987
#        185075
#        207650
#
# Disc length: 2945 seconds
#
# Revision: 3
# Processed by: cddbd v1.5.2PL0 Copyright (c) Steve Scherf et al.
# Submitted via: ExactAudioCopy v1.0b3
#
DISCID=a40b7f0c
DTITLE=Peter Green - Legend
DYEAR=1988
DGENRE=Rock
TTITLE0=Touch My Spirit
TTITLE1=Six String Guitar
TTITLE2=Proud Pinto
TTITLE3=The Clown
TTITLE4=You Won't See Me Any More
TTITLE5=Long Way From Home
TTITLE6=In The Skies
TTITLE7=Rubbing My Eyes
TTITLE8=What Am I Doing Here
TTITLE9=Corner Of My Mind
TTITLE10=Carry My Love
TTITLE11=Bandit
EXTD=
EXTT0=
EXTT1=
EXTT2=
EXTT3=
EXTT4=
EXTT5=
EXTT6=
EXTT7=
EXTT8=
EXTT9=
EXTT10=
EXTT11=
PLAYORDER=
